<svg xmlns="http://www.w3.org/2000/svg" viewBox="0 0 299.99 60"><defs><style>.cls-1{fill:#fff;}.cls-2{fill:#f7941d;}</style></defs><title>PT invert</title><g id="Layer_2" data-name="Layer 2"><g id="Layer_1-2" data-name="Layer 1"><path class="cls-1" d="M31.53,23.54a13.38,13.38,0,0,1-1,5.53A9.53,9.53,0,0,1,27.4,33a11.07,11.07,0,0,1-4.15,1.86c-.88.16-1.84.29-2.87.38a36.28,36.28,0,0,1-3.88.17H8.38V47.44H0V11.67H16.19a36.57,36.57,0,0,1,6.36.43,22,22,0,0,1,2.3.55,9.41,9.41,0,0,1,1.68.84,10.68,10.68,0,0,1,3.72,4.18A13,13,0,0,1,31.53,23.54Zm-9.17,0A4.09,4.09,0,0,0,21,20.12c-.92-.69-2.57-1-4.95-1H8.38V28h8.14a12.92,12.92,0,0,0,2.66-.24A4.09,4.09,0,0,0,21,26.87,4,4,0,0,0,22.36,23.54Z"/><path class="cls-1" d="M67.65,47.44H58.17l-7.48-13.5h-7.5v13.5H34.82V11.74H53.08q6.49,0,9.39,2.7,3.07,2.66,3.08,8.27a11.53,11.53,0,0,1-1.87,6.81A8.28,8.28,0,0,1,59,32.79ZM57.14,22.8A3.32,3.32,0,0,0,56,20c-.85-.54-2.4-.81-4.66-.81H43.19v7.43h8.17A8.71,8.71,0,0,0,56,25.69,3.38,3.38,0,0,0,57.14,22.8Z"/><path class="cls-1" d="M104,29.65q0,9.42-4.4,14.06T86.28,48.38q-9.18,0-13.46-4.66t-4.28-14.4q0-9.22,4.38-13.77t13.36-4.48q9,0,13.41,4.57T104,29.65Zm-9.07,0c0-3.94-.71-6.86-2.12-8.74s-3.6-2.74-6.57-2.74-5.06.9-6.5,2.7a9.82,9.82,0,0,0-1.63,3.51,20,20,0,0,0-.54,5q0,6.16,2.12,9t6.55,2.82a7.74,7.74,0,0,0,6.52-2.82Q95,35.58,95,29.65Z"/><path class="cls-1" d="M137.58,19.08H126.39v28.6h-8.67l0-28.6H106.6V11.77h31Z"/><path class="cls-1" d="M173.67,47.71h-9.56l-7.53-13.6H149v13.6h-8.43v-36H159q6.54,0,9.46,2.72,3.11,2.67,3.1,8.33a11.68,11.68,0,0,1-1.87,6.86A8.36,8.36,0,0,1,165,33ZM163.08,22.89A3.37,3.37,0,0,0,162,20c-.85-.54-2.42-.82-4.7-.82H149v7.49h8.23c2.22,0,3.77-.3,4.65-.89A3.39,3.39,0,0,0,163.08,22.89Z"/><path class="cls-1" d="M215.25,47.71h-9.37l-3.12-8.26H188.85l-3,8.26h-9l14.89-36h8.48ZM199.93,32l-4.24-10.95-4.05,11Z"/><path class="cls-1" d="M300,47.7H286.68A25.42,25.42,0,0,1,280,47a13.5,13.5,0,0,1-4.81-2.51,14.07,14.07,0,0,1-4.23-5.8,22.38,22.38,0,0,1-1.42-8.35q0-9.46,4.23-14t13.1-4.55H300v7.3H287q-3.72,0-5.55,1.73a7.5,7.5,0,0,0-2.19,5.08l20.7.05v7.25H279.24a9.84,9.84,0,0,0,.47,3.2A4.87,4.87,0,0,0,281,38.57q1.81,1.83,6,1.83h13Z"/><path class="cls-2" d="M218.21,11.26H235.3q9,0,13.32,4.72t4.3,14.62a24,24,0,0,1-1.44,8.77,13.92,13.92,0,0,1-4.32,6,13.66,13.66,0,0,1-4.71,2.55,26.5,26.5,0,0,1-6.91.73H218.21Zm16.93,6.5h-9.08V42.1h9.08c3.49,0,5.89-.86,7.2-2.61s2-4.94,2-9.56-.65-7.78-2-9.54S238.63,17.76,235.14,17.76Z"/><path class="cls-1" d="M218.21,60V52.18h21l.68,0h0a19,19,0,0,0,2.14-.3h0a22.25,22.25,0,0,0,6.6-2.36h0c4.63-2.74,9.19-7.29,9.31-18.7h0V29.22c-.08-10-3.66-14.68-7.57-17.6h0a21.7,21.7,0,0,0-10.48-3.75h0c-.52,0-.68,0-.68,0h-21V0h21.06a29.39,29.39,0,0,1,13.21,3.69h0c6.68,3.6,13.43,11.71,13.31,25.53h0v1.57c.12,13.81-6.63,21.92-13.31,25.51h0A29.32,29.32,0,0,1,239.26,60h-21Z"/></g></g></svg>